<mxfile host="app.diagrams.net" modified="2023-04-12T09:07:58.985Z" agent="5.0 (Windows NT 10.0; Win64; x64) AppleWebKit/537.36 (KHTML, like Gecko) Chrome/111.0.0.0 Safari/537.36" etag="Ct5HC7GOqD77qgtoIjMt" version="20.8.20" type="github">
  <diagram name="第 1 页" id="YOh_2uyu-IEQk7uhiVSR">
    <mxGraphModel dx="1434" dy="764" grid="1" gridSize="10" guides="1" tooltips="1" connect="1" arrows="1" fold="1" page="1" pageScale="1" pageWidth="583" pageHeight="827" math="0" shadow="0">
      <root>
        <mxCell id="0" />
        <mxCell id="1" parent="0" />
        <mxCell id="Kw4cbDfpsBpaRp3NRuOw-4" value="" style="group" vertex="1" connectable="0" parent="1">
          <mxGeometry x="40" y="40" width="120" height="60" as="geometry" />
        </mxCell>
        <mxCell id="Kw4cbDfpsBpaRp3NRuOw-1" value="" style="rounded=0;whiteSpace=wrap;html=1;" vertex="1" parent="Kw4cbDfpsBpaRp3NRuOw-4">
          <mxGeometry width="120" height="60" as="geometry" />
        </mxCell>
        <mxCell id="Kw4cbDfpsBpaRp3NRuOw-3" value="提交申请" style="text;html=1;strokeColor=none;fillColor=none;align=center;verticalAlign=middle;whiteSpace=wrap;rounded=0;" vertex="1" parent="Kw4cbDfpsBpaRp3NRuOw-4">
          <mxGeometry x="60" y="30" width="60" height="30" as="geometry" />
        </mxCell>
        <mxCell id="Kw4cbDfpsBpaRp3NRuOw-6" value="" style="group" vertex="1" connectable="0" parent="1">
          <mxGeometry x="240" y="40" width="120" height="60" as="geometry" />
        </mxCell>
        <mxCell id="Kw4cbDfpsBpaRp3NRuOw-2" value="" style="rounded=0;whiteSpace=wrap;html=1;" vertex="1" parent="Kw4cbDfpsBpaRp3NRuOw-6">
          <mxGeometry width="120" height="60" as="geometry" />
        </mxCell>
        <mxCell id="Kw4cbDfpsBpaRp3NRuOw-5" value="审批申请" style="text;html=1;strokeColor=none;fillColor=none;align=center;verticalAlign=middle;whiteSpace=wrap;rounded=0;" vertex="1" parent="Kw4cbDfpsBpaRp3NRuOw-6">
          <mxGeometry x="60" y="30" width="60" height="30" as="geometry" />
        </mxCell>
        <mxCell id="Kw4cbDfpsBpaRp3NRuOw-9" value="" style="group" vertex="1" connectable="0" parent="1">
          <mxGeometry x="430" y="50" width="120" height="60" as="geometry" />
        </mxCell>
        <mxCell id="Kw4cbDfpsBpaRp3NRuOw-7" value="" style="rounded=0;whiteSpace=wrap;html=1;" vertex="1" parent="Kw4cbDfpsBpaRp3NRuOw-9">
          <mxGeometry width="120" height="60" as="geometry" />
        </mxCell>
        <mxCell id="Kw4cbDfpsBpaRp3NRuOw-8" value="任务验证" style="text;html=1;strokeColor=none;fillColor=none;align=center;verticalAlign=middle;whiteSpace=wrap;rounded=0;" vertex="1" parent="Kw4cbDfpsBpaRp3NRuOw-9">
          <mxGeometry x="60" y="30" width="60" height="30" as="geometry" />
        </mxCell>
        <mxCell id="Kw4cbDfpsBpaRp3NRuOw-12" value="" style="group" vertex="1" connectable="0" parent="1">
          <mxGeometry x="600" y="50" width="210" height="60" as="geometry" />
        </mxCell>
        <mxCell id="Kw4cbDfpsBpaRp3NRuOw-10" value="" style="rounded=0;whiteSpace=wrap;html=1;" vertex="1" parent="Kw4cbDfpsBpaRp3NRuOw-12">
          <mxGeometry width="210" height="60" as="geometry" />
        </mxCell>
        <mxCell id="Kw4cbDfpsBpaRp3NRuOw-11" value="获取申请编号&lt;br&gt;" style="text;html=1;strokeColor=none;fillColor=none;align=center;verticalAlign=middle;whiteSpace=wrap;rounded=0;" vertex="1" parent="Kw4cbDfpsBpaRp3NRuOw-12">
          <mxGeometry x="90" y="30" width="100" height="30" as="geometry" />
        </mxCell>
      </root>
    </mxGraphModel>
  </diagram>
</mxfile>
